<svg width="64" height="64" viewBox="0 0 64 64" fill="none" xmlns="http://www.w3.org/2000/svg">
  <rect x="2" y="2" width="60" height="60" rx="18" fill="#0B0D11" stroke="url(#paint0_linear)" stroke-width="2"/>
  <path d="M20 20H34C42.837 20 50 27.1634 50 36C50 44.8366 42.837 52 34 52H20V20Z" fill="url(#paint1_linear)"/>
  <path d="M20 20H32C38.6274 20 44 25.3726 44 32C44 38.6274 38.6274 44 32 44H20V20Z" fill="#0B0D11"/>
  <path d="M28 24H34C38.4183 24 42 27.5817 42 32C42 36.4183 38.4183 40 34 40H28V24Z" fill="url(#paint2_linear)"/>
  <defs>
    <linearGradient id="paint0_linear" x1="8" y1="8" x2="56" y2="56" gradientUnits="userSpaceOnUse">
      <stop stop-color="#4EA4FF"/>
      <stop offset="1" stop-color="#8B5CF6"/>
    </linearGradient>
    <linearGradient id="paint1_linear" x1="20" y1="20" x2="50" y2="52" gradientUnits="userSpaceOnUse">
      <stop stop-color="#4EA4FF"/>
      <stop offset="1" stop-color="#8B5CF6"/>
    </linearGradient>
    <linearGradient id="paint2_linear" x1="28" y1="24" x2="42" y2="40" gradientUnits="userSpaceOnUse">
      <stop stop-color="#E5EEF8"/>
      <stop offset="1" stop-color="#AAB7CA"/>
    </linearGradient>
  </defs>
</svg>
